<?xml version="1.0" standalone="no"?><!DOCTYPE svg PUBLIC "-//W3C//DTD SVG 1.1//EN" "http://www.w3.org/Graphics/SVG/1.1/DTD/svg11.dtd"><svg t="1713493438412" class="icon" viewBox="0 0 1024 1024" version="1.1" xmlns="http://www.w3.org/2000/svg" p-id="7152" xmlns:xlink="http://www.w3.org/1999/xlink" width="200" height="200"><path d="M513.6 1002.5c-67 0-132.1-13.1-193.3-39-59.1-25-112.2-60.8-157.8-106.4C116.8 811.5 81 758.3 56 699.2 30.1 638 17 572.9 17 505.9s13.1-132.1 39-193.3c25-59.1 60.8-112.2 106.4-157.8s98.7-81.4 157.8-106.4c61.2-25.9 126.3-39 193.3-39s132.1 13.1 193.3 39c59.1 25 112.2 60.8 157.8 106.4S946 253.5 971 312.6c25.9 61.2 39 126.3 39 193.3S996.9 638 971 699.2c-25 59.1-60.8 112.2-106.4 157.8-45.6 45.6-98.7 81.4-157.8 106.4-61.1 26-126.2 39.1-193.2 39.1z m0-953.2C261.8 49.3 57 254.1 57 505.9s204.8 456.6 456.6 456.6 456.6-204.8 456.6-456.6S765.4 49.3 513.6 49.3z" fill="#1296db" p-id="7153"></path></svg>