<?xml version="1.0" standalone="no"?><!DOCTYPE svg PUBLIC "-//W3C//DTD SVG 1.1//EN" "http://www.w3.org/Graphics/SVG/1.1/DTD/svg11.dtd"><svg t="1716016737248" class="icon" viewBox="0 0 1024 1024" version="1.1" xmlns="http://www.w3.org/2000/svg" p-id="1451" xmlns:xlink="http://www.w3.org/1999/xlink" width="200" height="200"><path d="M649.6 252.8h-256v-128c0-12.8-12.8-22.4-25.6-16L35.2 281.6c-12.8 6.4-12.8 25.6 0 32l329.6 163.2c12.8 6.4 25.6-3.2 25.6-16v-128h259.2c147.2 0 265.6 112 265.6 249.6S796.8 832 649.6 832H118.4c-22.4 0-41.6 19.2-41.6 41.6s19.2 41.6 41.6 41.6h531.2c192 0 348.8-147.2 348.8-332.8-3.2-182.4-156.8-329.6-348.8-329.6z" fill="#d4237a" p-id="1452"></path></svg>