<?xml version="1.0" standalone="no"?><!DOCTYPE svg PUBLIC "-//W3C//DTD SVG 1.1//EN" "http://www.w3.org/Graphics/SVG/1.1/DTD/svg11.dtd"><svg t="1717141321172" class="icon" viewBox="0 0 1952 1024" version="1.1" xmlns="http://www.w3.org/2000/svg" p-id="6211" xmlns:xlink="http://www.w3.org/1999/xlink" width="381.25" height="200"><path d="M448 0h1056c246.4 0 448 201.6 448 448v128c0 246.4-201.6 448-448 448H0V448C0 201.6 201.6 0 448 0z" fill="#EE502F" p-id="6212"></path><path d="M614.4 361.6C582.4 304 544 256 496 224l41.6-25.6c64 44.8 115.2 124.8 160 236.8 67.2 169.6 153.6 288 265.6 358.4l-32 41.6c-115.2-70.4-208-198.4-278.4-384-3.2-12.8-6.4-22.4-12.8-28.8-48 179.2-144 316.8-291.2 412.8l-28.8-44.8c150.4-99.2 249.6-240 294.4-428.8z m944 476.8h-60.8l-12.8-48h64c19.2 0 32-12.8 32-41.6V281.6H1312V233.6h320V768c-3.2 44.8-25.6 70.4-73.6 70.4zM1065.6 313.6h48v528h-48V313.6zM1168 192c32 38.4 60.8 80 86.4 128l-44.8 22.4C1184 294.4 1155.2 249.6 1120 211.2l48-19.2z" fill="#FFFFFF" p-id="6213"></path></svg>