<?xml version="1.0" standalone="no"?><!DOCTYPE svg PUBLIC "-//W3C//DTD SVG 1.1//EN" "http://www.w3.org/Graphics/SVG/1.1/DTD/svg11.dtd"><svg t="1717118130958" class="icon" viewBox="0 0 1024 1024" version="1.1" xmlns="http://www.w3.org/2000/svg" p-id="4310" xmlns:xlink="http://www.w3.org/1999/xlink" width="200" height="200"><path d="M889.97888 550.90688l-356.79744-356.81792c-4.23424-4.23936-9.99424-6.61504-15.9744-6.61504-5.9904 0-11.74016 2.3808-15.97952 6.61504l-356.8128 356.81792c-8.82688 8.8064-8.82688 23.12704 0 31.9488 8.82688 8.81664 20.3008 8.81664 29.12256 0l68.29056-71.12704 0 282.61888c0 12.4672 15.76448 28.24704 28.24192 28.24704l157.92128 0 180.75136 0 158.40768 0c12.46208 0 16.94208-15.77984 16.94208-28.24704l0-279.78752 71.10144 68.29056c4.42368 4.38784 11.60192 6.62016 17.38752 6.62016 5.79072 0 12.26752-2.23232 16.6912-6.62016C898.09408 574.0288 898.80576 559.70816 889.97888 550.90688zM580.7616 777.40544 445.184 777.40544l0-152.51456c0-18.688 20.61312-28.24704 39.30112-28.24704l67.78368 0c18.688 0 28.48768 9.55392 28.48768 28.24704L580.75648 777.40544zM738.9184 777.40544l-112.9728 0 0-152.51456c0-43.61216-30.07488-73.43616-73.6768-73.43616L484.48512 551.45472c-43.60192 0-84.48512 29.824-84.48512 73.43616l0 152.51456L287.0272 777.40544l0-310.6816c0-0.05632 2.80064-0.1024 2.80064-0.16384l223.14496-224.54272 225.9456 227.35872L738.9184 777.40544z" fill="#E4007F" p-id="4311"></path></svg>