<?xml version="1.0" standalone="no"?><!DOCTYPE svg PUBLIC "-//W3C//DTD SVG 1.1//EN" "http://www.w3.org/Graphics/SVG/1.1/DTD/svg11.dtd"><svg t="1720492453149" class="icon" viewBox="0 0 1024 1024" version="1.1" xmlns="http://www.w3.org/2000/svg" p-id="5092" xmlns:xlink="http://www.w3.org/1999/xlink" width="200" height="200"><path d="M397.345915 70.521026a128.335837 128.335837 0 0 1 229.15083 0l88.817269 178.373735 198.957507 28.601207a126.800583 126.800583 0 0 1 109.230457 131.178899l-1.137225 12.168308a126.004526 126.004526 0 0 1-37.300979 72.384368l-143.972679 138.741445 33.548136 193.61255 127.255473 125.947664a41.849879 41.849879 0 0 1 0 59.647449 42.930242 42.930242 0 0 1-54.302492 4.890068l-5.91357-4.890068-88.703547-87.907489a127.369196 127.369196 0 0 1-70.109918 48.218338l-12.054585 2.615618a128.904449 128.904449 0 0 1-81.027278-12.680059L511.92133 868.739225l-177.861984 92.683834a128.50642 128.50642 0 0 1-166.31915-42.589074l-6.254738-10.519331a125.322191 125.322191 0 0 1-12.79378-80.17436l33.946165-196.171306-143.858958-138.741445A125.549636 125.549636 0 0 1 27.804664 324.122192l8.64291-9.723274c19.617131-19.901437 45.318415-32.865801 73.123565-36.90295l79.321441-11.429111-90.409384-89.499604a41.849879 41.849879 0 0 1 0-59.590588 42.930242 42.930242 0 0 1 54.359353-4.890067l5.913569 4.890067 135.329771 133.908239 14.329034-1.990143zM264.06315 340.44137l-142.266843 20.470049a42.759658 42.759658 0 0 0-24.336614 12.338891 41.849879 41.849879 0 0 0 0.739196 59.590588l175.985563 169.787686-41.508711 239.727022a41.793017 41.793017 0 0 0 4.207732 26.724787 42.81652 42.81652 0 0 0 57.543583 17.683848L511.92133 773.610357l217.494273 113.153884a42.987103 42.987103 0 0 0 27.009093 4.264593 42.418491 42.418491 0 0 0 33.71872-29.909016L264.06315 340.44137z m259.514736-254.510946a42.759658 42.759658 0 0 0-49.867315 21.89158L366.58398 322.643799l403.828583 399.734574-20.754355-119.749789 175.985562-169.787686a42.020462 42.020462 0 0 0-23.597418-71.929479l-243.195557-34.969667-108.775568-218.119748a42.36163 42.36163 0 0 0-19.332824-19.105379z" fill="#515151" p-id="5093"></path></svg>