<?xml version="1.0" standalone="no"?><!DOCTYPE svg PUBLIC "-//W3C//DTD SVG 1.1//EN" "http://www.w3.org/Graphics/SVG/1.1/DTD/svg11.dtd"><svg t="1720492569578" class="icon" viewBox="0 0 1024 1024" version="1.1" xmlns="http://www.w3.org/2000/svg" p-id="5698" xmlns:xlink="http://www.w3.org/1999/xlink" width="200" height="200"><path d="M926.208 416.768c-4.608-13.312-16.896-22.528-31.232-22.528h-281.088l-87.04-267.264c-4.608-13.312-16.896-22.528-31.232-22.528s-26.624 9.216-31.232 22.528l-44.032 135.168-47.616 131.584H96.768c-14.336 0-26.624 9.216-31.232 22.528-4.608 13.824 0 28.672 11.776 36.864l227.84 165.376-87.04 267.264c-4.608 13.824 0 28.672 11.776 36.864 11.264 8.192 26.624 8.192 38.4 0l227.328-165.376 227.328 165.376c6.144 4.096 12.8 6.144 19.456 6.144s13.312-2.048 19.968-5.632c11.264-8.704 16.384-23.552 11.776-36.864l-87.04-267.264 227.328-165.376c11.264-8.704 16.384-23.552 11.776-36.864z" fill="#4C4C4C" p-id="5699"></path></svg>