<?xml version="1.0" standalone="no"?><!DOCTYPE svg PUBLIC "-//W3C//DTD SVG 1.1//EN" "http://www.w3.org/Graphics/SVG/1.1/DTD/svg11.dtd"><svg t="1715612196879" class="icon" viewBox="0 0 1024 1024" version="1.1" xmlns="http://www.w3.org/2000/svg" p-id="4250" xmlns:xlink="http://www.w3.org/1999/xlink" width="64" height="64"><path d="M897.710638 464.554435a71.325571 71.325571 0 0 1 100.725 100.810215l-437.582803 437.668018a71.069924 71.069924 0 0 1-100.810215 0L22.374602 565.449866a71.240355 71.240355 0 1 1 100.810215-100.810215l387.220303 387.305518 387.305518-387.305518z m-387.305518-56.412817L123.184817 20.921315A71.325571 71.325571 0 0 0 22.374602 121.73153l437.668018 437.668019a71.069924 71.069924 0 0 0 100.810215 0l437.582803-437.668019A71.240355 71.240355 0 1 0 897.710638 20.921315L510.40512 408.141618z" fill="#1afa29" p-id="4251"></path></svg>