<?xml version="1.0" standalone="no"?><!DOCTYPE svg PUBLIC "-//W3C//DTD SVG 1.1//EN" "http://www.w3.org/Graphics/SVG/1.1/DTD/svg11.dtd"><svg t="1716622816134" class="icon" viewBox="0 0 1024 1024" version="1.1" xmlns="http://www.w3.org/2000/svg" p-id="3545" xmlns:xlink="http://www.w3.org/1999/xlink" width="200" height="200"><path d="M315.294313 13.777372s56.461864 28.230932 62.069378 32.871633-23.203506 25.523856-23.203506 25.523856 71.35078-0.483406 93.974198 2.707075 42.636442-3.673888 34.805258-28.230931S439.336387 9.13667 419.903451 1.692212 315.294313 13.777372 315.294313 13.777372zM177.620179 196.698341s33.064996 20.399749 55.495051 12.278522 191.138878-89.236816 267.613766-110.700058 116.017528-21.366561 112.730365-15.759048a12.18184 12.18184 0 0 0-1.546901 9.668127s29.58447-6.09092 36.642203-23.396868-14.792235-29.004382-22.430055-27.554163S450.261371 92.57261 177.620179 196.698341z" p-id="3546" fill="#1afa29"></path><path d="M380.747535 136.175864s-85.659608 85.272883-101.612018 116.017528-19.336255 46.31033 1.160175 66.516717a89.720222 89.720222 0 0 0 37.705697 24.170318 390.108939 390.108939 0 0 1 24.943768-55.688414 970.583306 970.583306 0 0 1 59.94239-92.233935s-77.345019 47.08378-82.855852 50.564307 7.154414-53.368063 60.71584-109.346521zM494.734757 147.100848s-9.668127-24.557044 9.668127-14.695554 71.834186 47.470505 64.969816 60.71584-153.916588 118.531242-169.095548 126.362425a70.287286 70.287286 0 0 1-37.125609 4.447338s135.547146-125.008887 131.583214-176.830049zM136.820682 353.612048a245.377073 245.377073 0 0 0-14.888916 112.150278c6.187602 64.389728 42.636442 80.825545 63.712959 80.342138s17.402629-92.62066 17.402629-92.62066-9.668127 34.418533-27.747525 34.998621S147.842347 465.085557 136.820682 353.612048z" p-id="3547" fill="#1afa29"></path><path d="M172.206028 406.88343a114.180584 114.180584 0 0 0 46.407011 1.643582c20.689793-4.930745 150.049337-83.145895 318.178072-113.793859s284.339626-17.015904 275.058223-10.924984-206.317838 84.789477-206.317838 84.789477 160.490914-24.653725 212.698802-9.668127 80.728864 40.412772 84.596115 9.668127-28.424294-91.363804-51.917844-97.93813a730.427022 730.427022 0 0 0-156.043576-18.079399c-61.48929 0-335.48402 44.280023-522.658965 154.303313zM320.998508 442.655501s-38.672509 57.235314-17.112585 96.681274a406.931481 406.931481 0 0 0 55.495051 81.308951c12.085159 12.085159 38.672509 2.320351 26.393987-20.013023s-30.35792-59.555665-42.926485-83.629302-21.849968-34.90194-21.849968-74.3479z" p-id="3548" fill="#1afa29"></path><path d="M323.318859 501.631078a1353.537831 1353.537831 0 0 1 166.098428-66.420035c77.345019-23.493549 92.814023-36.738884 130.6164-13.825422s64.196366 48.340637 50.951032 75.024669-93.297429 98.034811-111.086784 105.479269-60.71584-18.369442-79.085282-52.207888c0 0 60.135752 5.800876 87.689916-14.888916s62.456103-83.049214 32.581589-89.913584-104.222413-5.124108-171.802624 26.393987-64.099684 56.365183-105.962675 30.35792z" p-id="3549" fill="#1afa29"></path><path d="M420.193495 343.943921s-18.562805-40.316091 5.510832-40.702816 56.751908 19.336255 56.075139 43.699936 0.870131 245.280391-1.353538 419.79009-29.004382 257.268869-29.004382 257.268869-8.507952-341.671621-31.228051-680.056079z" p-id="3550" fill="#1afa29"></path></svg>