<?xml version="1.0" standalone="no"?><!DOCTYPE svg PUBLIC "-//W3C//DTD SVG 1.1//EN" "http://www.w3.org/Graphics/SVG/1.1/DTD/svg11.dtd"><svg t="1718282161051" class="icon" viewBox="0 0 1461 1024" version="1.1" xmlns="http://www.w3.org/2000/svg" p-id="857" xmlns:xlink="http://www.w3.org/1999/xlink" width="285.3515625" height="200"><path d="M767.051024 1015.546295a101.380894 101.380894 0 0 1-42.798204-9.873249 90.151662 90.151662 0 0 1-46.082225-75.723159v-612.310939a191.024063 191.024063 0 0 1 69.133931-144.835902c276.514535-220.559061 539.871801-177.760857 641.973061-148.141111a101.698703 101.698703 0 0 1 72.417951 95.469658v724.221886a92.651756 92.651756 0 0 1-32.946142 69.21868 90.511845 90.511845 0 0 1-75.701972 16.462477 680.766878 680.766878 0 0 0-539.871801 75.723159 105.131034 105.131034 0 0 1-46.082225 9.873249zM1211.474355 100.385094c-108.626927 0-250.178809 29.662122-398.319919 151.425131a92.651756 92.651756 0 0 0-32.924955 69.133931v585.954025a781.40622 781.40622 0 0 1 582.648817-79.007179V120.15278a543.071072 543.071072 0 0 0-151.42513-19.746498z m0 0" fill="#d81e06" opacity=".56" p-id="858"></path><path d="M694.611886 1022.156711a75.553661 75.553661 0 0 1-46.082225-13.178457 677.758292 677.758292 0 0 0-539.871801-75.723159 90.533033 90.533033 0 0 1-75.723159-16.462477A87.524446 87.524446 0 0 1 0.030933 847.679874V123.457988a95.978151 95.978151 0 0 1 72.417952-95.469658c102.037698-29.662122 365.394964-72.417951 638.625478 151.425131a191.002876 191.002876 0 0 1 69.133931 144.835903v612.310939a83.689557 83.689557 0 0 1-46.082225 75.723159 70.193292 70.193292 0 0 1-39.514183 9.873249z m-398.319919-210.685812a737.696965 737.696965 0 0 1 385.162649 105.342906V324.270551a98.414682 98.414682 0 0 0-32.924955-69.133931C411.508122 60.913285 187.66504 100.469843 102.068632 123.457988v707.759409a1050.695909 1050.695909 0 0 1 194.223335-19.746498z m0 0" fill="#d81e06" p-id="859"></path></svg>